<svg xmlns="http://www.w3.org/2000/svg" viewBox="0 0 512 512" id="educational-aspiration-education">
  <g>
    <g>
      <path fill="#ffb448" d="m402.85,375.03c13.34,15.08-8.53,6.01-3.1,20.44,6.98,18.55,28.91,48.82,19.94,56.75-8.96,7.92-37.2-16.76-54.76-25.96-13.66-7.15-5.79,15.6-19.13.52-30.48-34.48-62.95-97.23-47.02-111.32s73.59,25.09,104.07,59.57Z"></path>
      <path fill="#f7a73c" d="m298.78,315.46c15.93-14.09,73.59,25.09,104.07,59.57,13.34,15.08-8.53,6.01-3.1,20.44,6.98,18.55,28.91,48.82,19.94,56.75"></path>
      <path fill="#f95555" d="m369.55,362.08c7.65,8.65-4.89,3.45-1.78,11.72,4,10.64,16.58,28,11.44,32.54-5.14,4.54-21.34-9.61-31.41-14.89-7.83-4.1-3.32,8.95-10.97.3-17.48-19.77-36.1-55.76-26.96-63.84,9.14-8.08,42.2,14.39,59.68,34.16Z"></path>
      <path fill="#d84444" d="m379.21,406.34c5.14-4.54-7.44-21.9-11.44-32.54-3.11-8.28,9.43-3.07,1.78-11.72-17.48-19.77-50.54-42.24-59.68-34.16l69.34,78.43Z"></path>
      <path fill="#f95555" d="m55.36,63.33l45.97,145.58c13.77,37.66,40.36,70.35,74.6,91.71l89.01,45.24c5.53,2.63,11.71,1.96,15.88-1.73l51.51-45.54c4.39-3.88,5.72-10.35,3.37-16.38l-37.84-89.41c-18.67-36.83-49.01-67.13-85.58-85.46L75.58,45.26c-12.65-6.34-25.08,4.76-20.22,18.06Z"></path>
      <path fill="#d84444" d="m320.05,309.46l12.3-10.87c4.39-3.88,5.72-10.35,3.37-16.38l-37.84-89.41c-18.67-36.83-49.01-67.13-85.58-85.46L75.58,45.26c-5.69-2.85-11.33-2.18-15.38.64,163.64,60.47,237.51,99.69,259.84,263.56Z"></path>
      <path fill="#f9e480" d="m165.47,86.07l-87.71-44.11c-16.01-8.02-31.74,6.04-25.59,22.87l31.65,91.27c50.68,6.79,86.25-28.86,81.65-70.03Z"></path>
      <path fill="#f2d144" d="m163.62,109.76c3.22-9.75,2.24-20.27,1.84-23.68l-87.71-44.11c-7.46-3.73-14.15-2-16.28-.94,19.64.09,64.62,40.3,102.15,68.72Z"></path>
      <g>
        <circle cx="199.83" cy="201.82" r="56.16" fill="#d84444"></circle>
        <circle cx="195.57" cy="195.44" r="56.16" fill="#7b7bef"></circle>
        <circle cx="195.57" cy="195.44" r="44.63" fill="#f2f2f7"></circle>
        <ellipse cx="165.33" cy="201.82" fill="#fdfdff" rx="7.59" ry="11.53" transform="rotate(-14.87 165.268 201.79)"></ellipse>
      </g>
      <path fill="#f9e480" d="M183.89 300.33c.91 3.33 34.64 49.16 45.34 63.65 2.03 2.75 5.22 4.4 8.64 4.48l50.45 1.14c1.32.03 2.08-1.49 1.27-2.53l-20.44-26.09-85.26-40.65zM303.11 209.22c3.19 1.31 44.55 40.4 57.61 52.8 2.48 2.35 3.73 5.72 3.39 9.12l-5.05 50.21c-.13 1.32-1.73 1.88-2.67.95l-23.39-23.48-29.9-89.6zM260.78 268.14l27.91 48.41c1.82 3.15 4.4 5.79 7.51 7.68l38.43 23.26-21.12-39.62c-1.6-3-3.89-5.58-6.67-7.53l-46.06-32.21z"></path>
      <ellipse cx="71.61" cy="72.34" fill="#fdfdff" rx="7.59" ry="11.53" transform="rotate(-27.52 71.605 72.333)"></ellipse>
    </g>
    <rect width="145.54" height="12.13" x="338.66" y="189.37" fill="#efefef" rx="6.07" ry="6.07" transform="rotate(45 411.427 195.439)"></rect>
    <rect width="84.32" height="12.13" x="281.85" y="146.9" fill="#efefef" rx="6.07" ry="6.07" transform="rotate(45 324 152.965)"></rect>
    <rect width="95.3" height="12.13" x="142.06" y="409.21" fill="#efefef" rx="6.07" ry="6.07" transform="rotate(45 189.706 415.279)"></rect>
    <rect width="112.1" height="12.13" x="90.9" y="323.96" fill="#efefef" rx="6.07" ry="6.07" transform="rotate(45 146.952 330.02)"></rect>
    <polygon fill="#f2d144" points="279.93 354.74 183.89 300.33 269.15 340.98 279.93 354.74"></polygon>
    <polygon fill="#f2d144" points="345.36 311.22 303.11 209.22 333.07 298.75 345.36 311.22"></polygon>
  </g>
  <path fill="#d84444" d="M183.89 300.33l85.26 40.65 4.93 6.29c3.29-.3 6.55-2.55 9.78-5.81l-99.96-41.13zM260.78 268.14c17.5 12.19 37.9 26.15 46.91 33.17 1.78 1.39 3.3 3.08 4.47 5.01l4.01 6.56 2.29-2.02-2.39-3.54c-2.32-3.44-5.31-6.38-8.78-8.66l-46.52-30.51zM84.7 156.22c22.33 2.68 42.82-1.66 60.45-16.95 16.33-16.59 22.35-34.41 20.32-53.2.2.71.39 1.42.57 2.13 7.76 30.38-11.25 61.18-41.65 68.88-13.56 3.44-26.19 3.38-39.7-.86z"></path>
</svg>
