<svg xmlns="http://www.w3.org/2000/svg" viewBox="0 0 512 512" id="graduation">
  <defs>
    <clipPath id="a">
      <path fill="none" d="M180.65,254.13s4.06,35.7,42.33,80.13c0,0,32.94-27.63,47.83-85.94,0,0,22.57.93,34.68,10.71s18.36,32.26,18.36,32.26S264.58,339.07,223,346.68c0,0-67.07-7.53-92.23-49.18,0,0,12.43-25.82,19.88-32.34S180.65,254.13,180.65,254.13Z"></path>
    </clipPath>
  </defs>
  <path fill="#ffb833" d="M111.51 192.88a16.6 16.6 0 014.21 2.81 17.51 17.51 0 015.11 8.82 13 13 0 013.2-8.18 12.74 12.74 0 016.26-3.83 12.11 12.11 0 01-5.75-2.43 12.46 12.46 0 01-4.47-7.66 11 11 0 01-1.92 6A11.27 11.27 0 01111.51 192.88zM127.12 201.73a5.56 5.56 0 011.42 1 6 6 0 011.73 3 4.32 4.32 0 011.07-2.76 4.37 4.37 0 012.11-1.29 4 4 0 01-1.94-.82 4.14 4.14 0 01-1.5-2.58 3.69 3.69 0 01-2.89 3.53zM110.51 185.63a3.9 3.9 0 011 .65 4.06 4.06 0 011.18 2 3 3 0 01.74-1.88 2.92 2.92 0 011.44-.89 2.75 2.75 0 01-1.33-.55 2.92 2.92 0 01-1-1.77 2.51 2.51 0 01-2 2.41zM354 100.69a23 23 0 00-5.8 3.86 24.15 24.15 0 00-7 12.13 17.88 17.88 0 00-4.39-11.25 17.6 17.6 0 00-8.62-5.27 16.66 16.66 0 007.91-3.34 17.22 17.22 0 006.16-10.55 15.13 15.13 0 002.63 8.26A15.55 15.55 0 00354 100.69zM332.52 112.86a7.86 7.86 0 00-2 1.3 8.25 8.25 0 00-2.37 4.09 5.87 5.87 0 00-4.38-5.57 5.6 5.6 0 002.67-1.12 5.82 5.82 0 002.07-3.56 5.05 5.05 0 004 4.86zM355.38 90.71a5.24 5.24 0 00-1.34.89 5.57 5.57 0 00-1.62 2.8 4 4 0 00-3-3.81 3.78 3.78 0 001.82-.77 4 4 0 001.42-2.43 3.47 3.47 0 002.72 3.32zM305.43 215.48a16.6 16.6 0 00-4.21 2.81 17.54 17.54 0 00-5.11 8.82 13 13 0 00-3.2-8.18 12.7 12.7 0 00-6.26-3.83 12.11 12.11 0 005.75-2.43 12.49 12.49 0 004.47-7.66 11.13 11.13 0 001.92 6A11.27 11.27 0 00305.43 215.48zM289.82 224.33a5.56 5.56 0 00-1.42.95 5.84 5.84 0 00-1.72 3 4.41 4.41 0 00-1.08-2.76 4.33 4.33 0 00-2.11-1.29 4.06 4.06 0 001.94-.82 4.14 4.14 0 001.5-2.58 3.69 3.69 0 002.89 3.53zM306.43 208.23a3.9 3.9 0 00-1 .65 4.06 4.06 0 00-1.18 2 3 3 0 00-.73-1.88 2.94 2.94 0 00-1.45-.89 2.69 2.69 0 001.33-.56 2.88 2.88 0 001-1.76 2.51 2.51 0 002 2.41z"></path>
  <path fill="#ff8c5f" d="M164.87,166.87a13.09,13.09,0,0,0-9.7-3.76,10,10,0,0,0-5.95,2.23c-5.41,5.06-3.34,21,6,25.13,5.22,2.29,10.76,0,12.63-.85Q166.37,178.25,164.87,166.87Z"></path>
  <path fill="#383333" d="M156.41,185.54a.34.34,0,0,1-.24-.1c-2.22-2.14-3.23-4.37-3-6.61.28-2.69,2.27-4.7,3.49-5.71l-7.39.34a.34.34,0,0,1-.37-.34.36.36,0,0,1,.34-.37l8.57-.39a.34.34,0,0,1,.36.25.38.38,0,0,1-.16.41s-3.76,2.38-4.13,5.89c-.21,2,.72,4,2.77,6a.35.35,0,0,1,0,.5A.33.33,0,0,1,156.41,185.54Z"></path>
  <path fill="#ff8c5f" d="M271.4,166.87a13.09,13.09,0,0,1,9.7-3.76,10,10,0,0,1,5.95,2.23c5.41,5.06,3.34,21-6,25.13-5.22,2.29-10.76,0-12.63-.85Q269.91,178.25,271.4,166.87Z"></path>
  <path fill="#383333" d="M280.66,185.54a.35.35,0,0,1-.27-.11.38.38,0,0,1,0-.53c2.16-2.09,3.14-4.22,2.91-6.34-.39-3.69-4.3-6.16-4.34-6.19a.37.37,0,0,1-.16-.43.36.36,0,0,1,.37-.26l9,.41a.38.38,0,0,1,.36.4.37.37,0,0,1-.39.35l-7.77-.36c1.29,1.06,3.37,3.18,3.67,6,.25,2.36-.81,4.7-3.14,7A.37.37,0,0,1,280.66,185.54Z"></path>
  <path fill="#ff535c" d="M116.5 159.93a.47.47 0 01-.25-.07c-5.64-3.38-8.22-6.55-7.67-9.43A5.22 5.22 0 01111 147.2a5.63 5.63 0 01-2.26-6.58 6.51 6.51 0 012.41-3.54 8 8 0 01-2.4-5.07 4.29 4.29 0 011.21-3.58c3.31-3.41 12.29-2.75 12.67-2.72a.5.5 0 01.46.54.49.49 0 01-.54.45c-.09 0-8.89-.65-11.88 2.42a3.28 3.28 0 00-.92 2.79 7 7 0 002.3 4.64 11.06 11.06 0 016.26-.75c2.42.35 5.78 1.56 5.78 2.92 0 .4-.25.92-1.43 1.09-3.23.47-7.7.17-10.7-2.05a5.45 5.45 0 00-2.26 3.14 4.64 4.64 0 002.26 5.73 14.07 14.07 0 014.25-1.37c2.21-.35 5-.26 5.85 1.17a1.4 1.4 0 01-.24 1.78c-1.45 1.4-6.43 1.38-9.86-.43a4.54 4.54 0 00-2.35 2.84c-.32 1.67.67 4.47 7.2 8.38a.49.49 0 01.17.69A.51.51 0 01116.5 159.93zM113 147.2c3.06 1.33 7.07 1.24 8 .29.16-.15.22-.29.06-.58-.35-.64-2.16-1.09-4.81-.66A13.88 13.88 0 00113 147.2zm-.11-10c2.75 1.78 6.67 2 9.56 1.58a2 2 0 00.54-.14c-.36-.58-3.2-2-6.71-2A8.84 8.84 0 00112.91 137.24zM332.23 212.06a.51.51 0 01-.43-.25.5.5 0 01.17-.68c6.54-3.91 7.52-6.72 7.2-8.38a4.52 4.52 0 00-2.34-2.84c-3.43 1.81-8.41 1.82-9.86.43a1.38 1.38 0 01-.24-1.78c.79-1.43 3.64-1.52 5.84-1.17a14.13 14.13 0 014.26 1.37 4.64 4.64 0 002.25-5.73 5.4 5.4 0 00-2.25-3.14c-3 2.22-7.48 2.52-10.71 2.05-1.18-.17-1.43-.69-1.43-1.09 0-1.36 3.36-2.57 5.79-2.92a11.13 11.13 0 016.26.74A7 7 0 00339 184a3.27 3.27 0 00-.93-2.79c-3-3.07-11.79-2.42-11.87-2.42a.5.5 0 01-.54-.46.49.49 0 01.46-.53c.38 0 9.35-.69 12.67 2.71a4.28 4.28 0 011.2 3.59 7.91 7.91 0 01-2.4 5.07 6.43 6.43 0 012.41 3.53 5.6 5.6 0 01-2.26 6.58 5.19 5.19 0 012.37 3.24c.56 2.88-2 6.05-7.66 9.43A.59.59 0 01332.23 212.06zm-1.77-13.85c-1.57 0-2.6.37-2.86.83-.15.29-.09.43.06.58 1 .94 5 1 8-.29a13.88 13.88 0 00-3.3-1A11.78 11.78 0 00330.46 198.21zm-4.73-7.41a1.74 1.74 0 00.54.15c2.88.42 6.81.2 9.55-1.58a9 9 0 00-3.38-.58C328.92 188.8 326.09 190.23 325.73 190.8z"></path>
  <circle cx="218.27" cy="154.05" r="62.57" fill="#ffb08d"></circle>
  <path fill="#ffb08d" d="M205,201.87s1.25,33.54-6.83,42.23-32.29,11.8-39.74,28.57,18.32,77.63,0,169.85c0,0,59.93,43.78,158.67,0,0,0-15.84-25.15-20.5-67.07s10.25-103.4-3.72-117.37-36.33-6.52-46.58-20.5S237.1,196,237.1,196,222.42,186.66,205,201.87Z"></path>
  <path fill="#ffb08d" d="M157.34 169.39S170.29 232.11 219 230.1s60.73-51 61.7-80.11C280.71 150 200.67 92.8 157.34 169.39zM174.1 257.45a49.54 49.54 0 00-15.4 8.64c-12.35 10.32-16 24.29-18 31.06-4.41 15.15-12.47 36.32-28.57 66.13l24.53 26.4a163.45 163.45 0 0018-18.94c13.85-17.12 20.09-31.92 29.19-54 14.89-36.17 12-43.56 10-47C189.44 262.13 180.7 258.92 174.1 257.45zM270.81 248.32c7.68.76 19.78 3.13 29.79 11.87 10.28 9 10.75 18 23 65.21 6.09 23.5 13.66 50.92 13.66 50.92h0l-39.12 11.8c-3.54-7.11-8.21-17.05-13-29.18-4.26-10.7-10.72-26.93-14.29-43.47C267.79 301.54 264.91 278.5 270.81 248.32z"></path>
  <path fill="#ffb08d" d="M353.39 295a189.62 189.62 0 01-28.57 42.85C308.76 355.87 294 365.18 295 380.05c.07.91.89 10.63 8.08 15.53 7.44 5.07 17.37 2 21.73.62 29.24-9.11 54.79-92.95 57.35-101.54zM126 281.19a189.24 189.24 0 007.25 51c6.69 23.21 16 38 8.64 51-.45.8-5.39 9.21-14 10.52-8.9 1.36-16.48-5.68-19.88-8.83C85.68 364.05 97 286 98.21 277.74z"></path>
  <path fill="#fff3e3" d="M163,302.81c.31,17.72.15,36.2-.58,55.37A999.56,999.56,0,0,1,153,462s99.67,45.53,171.86-4.3c0,0-6.19-13.63-13-32.26A354.48,354.48,0,0,1,295,363.13a348.42,348.42,0,0,1-5.07-67.77c-14.26,2-29.18,3.62-44.71,4.89A817,817,0,0,1,163,302.81Z"></path>
  <path fill="#383333" d="M180.65 254.13s17.49 83.38 19.81 126.23 0 96.15 0 96.15-33.42 0-55.83-14.53l3.2-57.86s-24.22 9-45.64-5.74-23.76-61.33-23.76-61.33 15.81-32 48.2-42.08l5.37 19.1s9.93-34 18-43S180.65 254.13 180.65 254.13zM270.81 248.32s-17.71 76.33-7.47 150.06 12.8 79.52 12.8 79.52 38-3 57.07-22.55l-16.08-38.19s49.92-1.09 70.42-58.22a176.68 176.68 0 00-39.78-53.34l-20.85 26.09s-7-58.45-21.89-70.56S270.81 248.32 270.81 248.32z"></path>
  <g clip-path="url(#a)">
    <path fill="#383333" d="M180.65,254.13s4.06,35.7,42.33,80.13c0,0,32.94-27.63,47.83-85.94,0,0,22.57.93,34.68,10.71s18.36,32.26,18.36,32.26S264.58,339.07,223,346.68c0,0-67.07-7.53-92.23-49.18,0,0,12.43-25.82,19.88-32.34S180.65,254.13,180.65,254.13Z"></path>
    <path fill="#ffb833" d="M132.62,284.1s58.37,54.34,90.67,56.83c0,0,68.62-31.05,101.53-74.84L329.48,295l-94.7,57.14L173,340.93l-53.25-38.2Z"></path>
  </g>
  <circle cx="225.85" cy="339.14" r="9.78" fill="#ff832f"></circle>
  <path fill="#ff832f" d="M179 161.39a19.59 19.59 0 0111.24-3.83c2.74-.1 6.45-.24 7.62 1.9a3 3 0 010 3c-1.27 1.74-4.52.22-9.75.24-6.88 0-11.33 2.68-11.79 1.7C175.9 163.72 178.09 162.05 179 161.39zM258.25 160.34A19.72 19.72 0 00246.87 157c-2.75 0-6.46 0-7.55 2.19a3 3 0 00.16 3c1.33 1.69 4.52 0 9.75-.14 6.88-.25 11.42 2.24 11.84 1.24C261.38 162.56 259.13 161 258.25 160.34z"></path>
  <path fill="#383333" d="M217.4,187.33c-1.28,0-2.35-.06-2.82-.1a.5.5,0,0,1-.46-.53.51.51,0,0,1,.53-.47c3.45.25,8.54,0,9-1.2.57-1.41-2.2-8.61-4.08-12.82a.5.5,0,0,1,.25-.66.51.51,0,0,1,.67.25c.84,1.89,5,11.38,4.09,13.6C224,187,220.19,187.33,217.4,187.33Z"></path>
  <ellipse cx="182.06" cy="189.81" fill="#ff8c5f" rx="4.75" ry="7.63" transform="rotate(-89.72 182.059 189.811)"></ellipse>
  <ellipse cx="253.54" cy="190.16" fill="#ff8c5f" rx="4.75" ry="7.63" transform="rotate(-89.72 253.53 190.163)"></ellipse>
  <path fill="#383333" fill-rule="evenodd" d="M248.91,178.12a5.41,5.41,0,1,1-.57-7.61A5.41,5.41,0,0,1,248.91,178.12Z"></path>
  <path fill="#383333" fill-rule="evenodd" d="M253.73 170.87c-.12-.1-1.15 1.75-2.52 1.64-1-.09-1.28-1.19-2.56-2.14a6.52 6.52 0 00-3.84-1.18 14.21 14.21 0 002.22 3.13c1.26 1.33 2.06 2.18 3.14 2.18C252.36 174.51 253.89 171 253.73 170.87zM197.92 180.65a5.4 5.4 0 11-.12-7.64A5.42 5.42 0 01197.92 180.65z"></path>
  <path fill="#383333" fill-rule="evenodd" d="M184.81,174c.12-.11,1.31,1.64,2.66,1.4,1-.18,1.17-1.3,2.36-2.36a6.49,6.49,0,0,1,3.71-1.52,13.46,13.46,0,0,1-1.93,3.31c-1.12,1.44-1.85,2.36-2.93,2.46C186.5,177.48,184.67,174.13,184.81,174Z"></path>
  <path fill="#383333" d="M219.88,208.81a11.89,11.89,0,0,1-5.18-1.2.38.38,0,0,1-.17-.5.37.37,0,0,1,.5-.17,11,11,0,0,0,9.93-.12.37.37,0,0,1,.51.16.38.38,0,0,1-.16.5,11.79,11.79,0,0,1-4.91,1.32Z"></path>
  <path fill="#fff" d="M205.76,195.5l29.81-.84a16.35,16.35,0,0,1-16.38,10.89A16.18,16.18,0,0,1,205.76,195.5Z"></path>
  <path fill="#ff832f" d="M216.3,109.29a65.92,65.92,0,0,1-16.07,31c-15.2,16.31-34.06,19.57-39.79,20.33,0,0-1.8,31.29,13.91,51.48,0,0-26.77-18.95-22.92-69.25s60.8-67.53,98-48.9,48.84,81.93,15.78,122.71c0,0,13-20.71,7.91-55.88a85.49,85.49,0,0,1-29.34-14.67A86.77,86.77,0,0,1,216.3,109.29Z"></path>
  <path fill="#383333" d="M155.94,123.74s62.93-35.14,119.89-2.13q1.32-15.09,2.63-30.18c-4.45-4.24-28.16-26-64.74-25.15-39,.94-62.42,26.94-66.14,31.21Z"></path>
  <path fill="#383333" d="M151,108.38l-50.23-8.6A.94.94,0,0,1,100.4,98L212.6,31.13a1,1,0,0,1,.87-.05L318.63,78.53a.94.94,0,0,1,.05,1.69l-41,21.82a.79.79,0,0,1-.39.11l-126.16,6.24A.74.74,0,0,1,151,108.38Z"></path>
  <path fill="#fff" d="M150.85,108.86a.5.5,0,0,1-.3-.9c.14-.11,14.73-10.75,37.64-16.81,21.14-5.61,53.91-8.36,89.94,10.35a.5.5,0,0,1,.22.67.51.51,0,0,1-.68.22c-35.75-18.56-68.26-15.83-89.23-10.28-22.72,6-37.15,16.55-37.3,16.66A.52.52,0,0,1,150.85,108.86Z"></path>
  <path fill="#ffb833" d="M326.43,136.78a2.45,2.45,0,0,1-1.64-.62,53.64,53.64,0,0,1-14.17-19.55C304,100.76,307,86.06,309.3,78.71a2.5,2.5,0,0,1,4.76,1.53c-2.14,6.69-4.85,20.07,1.17,34.45a48.69,48.69,0,0,0,12.85,17.71,2.5,2.5,0,0,1-1.65,4.38Z"></path>
  <path fill="#ff832f" d="M318.82,129.47s7.61,7.76,9.94,15.06A40.86,40.86,0,0,1,330.93,157s16.77-5,20.81-15.53c0,0-25.62-9.78-29.5-14.13Z"></path>
  <path fill="#fff" d="M140 379h0a.49.49 0 01-.47-.52c1.59-27.4-7.86-63.91-8-64.28a.5.5 0 011-.25c.1.37 9.58 37 8 64.58A.51.51 0 01140 379zM147.83 404.62a.58.58 0 01-.18 0 .5.5 0 01-.28-.65c10.8-26.76 9-74.07 9-74.55a.5.5 0 01.48-.52.5.5 0 01.52.48c0 .48 1.82 48-9.06 75A.51.51 0 01147.83 404.62zM317.13 417.66a.5.5 0 01-.43-.25c-17.41-29.44-14.91-87.49-14.89-88.07a.49.49 0 01.53-.48.5.5 0 01.47.52c0 .58-2.51 58.34 14.75 87.52a.51.51 0 01-.18.69A.59.59 0 01317.13 417.66zM323.85 380.86a.5.5 0 01-.5-.46c0-.27-1.52-26.26 3.08-48.81a.49.49 0 01.59-.39.5.5 0 01.39.59c-4.57 22.42-3.08 48.29-3.06 48.54a.5.5 0 01-.47.53z"></path>
  <path fill="#ffb08d" d="M122,289.15s6.88-6.29,8.79-13.74,10.35-12.81,9.4-16.07-11,1.4-12.6,2.09,5.48-14.67,3.2-18.16-10.33,15.14-11.3,12.81,2.51-19.22-1.33-21-7.1,16.53-8.5,16.18-3.38-12.46-6.75-12.57-1.63,15.14-2.45,17.23-6.17-9.22-8.15-7.64,1.28,11.37,1.28,15.68.35,19.56,7.8,21.89S122,289.15,122,289.15Z"></path>
  <path fill="#fedb99" d="M321.87,239.77s54.52,50,111.66,53.22c0,0,2,24.09-22.2,34.57,0,0-36.94-39.47-110.87-62.65a32.93,32.93,0,0,1,5.9-13.71A33.36,33.36,0,0,1,321.87,239.77Z"></path>
  <path fill="#ffb08d" d="M353 296a23.89 23.89 0 00-1.55-11.23c-2.33-5.26-3.55-8.45 0-7.47s7.18 4.69 8.57 9.26 12 10.84 12.48 11.13-3.3 6.3-3.3 6.3S355.28 299.72 353 296zM363 269.21s2.49 11.72 5.55 12.57 2.08-6.28 2.08-6.28 1.47 10 3.92 10.2 1.84-7.22 1.84-7.22 1.34 9.06 3.3 9.55 2-7.23 2-7.23.37 9.31 3.43 8.7 2-10.9.73-14.08-4.28.49-4.28.49-2.45-5.64-4.66-1.47c0 0-4-6.62-5.75-2.21C371.16 272.23 364.34 262.77 363 269.21z"></path>
  <path fill="#383333" d="M122 262.45l-.12 0c-8.65-3-20.33-.65-20.45-.63a.38.38 0 01-.44-.29.36.36 0 01.29-.44c.12 0 12-2.44 20.85.65a.38.38 0 01-.13.73zM119.45 269.26h-.1a.37.37 0 01-.27-.45c0-.21 1.33-5.05 8.34-7.72a.38.38 0 01.48.22.36.36 0 01-.22.48c-6.61 2.53-7.86 7.15-7.87 7.2A.37.37 0 01119.45 269.26zM381.69 281.18a.38.38 0 01-.38-.37l-.12-4.9a.38.38 0 01.37-.38.36.36 0 01.38.37l.12 4.89a.37.37 0 01-.36.39zM376.47 279.73h0a.37.37 0 01-.34-.41l.44-4.92a.37.37 0 01.41-.34.38.38 0 01.34.41l-.44 4.92A.37.37 0 01376.47 279.73zM370.94 277.45a.37.37 0 01-.37-.35l-.33-5.56a.38.38 0 01.75 0l.33 5.55a.38.38 0 01-.36.4zM162.48 152.12a.5.5 0 01-.11-1c25.54-5.83 38.19-34.46 38.31-34.75a.5.5 0 01.92.4c-.13.29-13 29.39-39 35.32zM158.81 138.3l-1.24 0a.5.5 0 01-.48-.52.51.51 0 01.52-.48c17.49.69 30.51-13.72 30.64-13.86a.49.49 0 01.7 0 .51.51 0 01.05.71C188.87 124.22 176.14 138.3 158.81 138.3zM279.21 152.12h0c-25.27-1.06-52.32-34.89-52.59-35.23a.5.5 0 01.08-.7.5.5 0 01.7.08c.27.34 27 33.81 51.85 34.85a.5.5 0 010 1zM276 138.36c-16.49 0-33.1-14.09-33.28-14.24a.5.5 0 01.66-.76c.17.15 17.8 15.1 34.48 13.94a.5.5 0 01.07 1C277.3 138.34 276.65 138.36 276 138.36zM217.12 230.15a70.27 70.27 0 01-13.53-1.22.5.5 0 01-.38-.6.49.49 0 01.59-.38c.19 0 19.2 4.12 36.64-3a.5.5 0 01.38.92A63.19 63.19 0 01217.12 230.15z"></path>
</svg>
